<?xml version="1.0" encoding="UTF-8"?>
<svg version="1.1" xmlns="http://www.w3.org/2000/svg" width="540" height="540">
<path d="M0 0 C178.2 0 356.4 0 540 0 C540 178.2 540 356.4 540 540 C361.8 540 183.6 540 0 540 C0 361.8 0 183.6 0 0 Z " fill="#FEFEFE" transform="translate(0,0)"/>
<path d="M0 0 C2.12410378 -0.09777855 4.24696699 -0.16248604 6.37255859 -0.21826172 C7.67966797 -0.25564453 8.98677734 -0.29302734 10.33349609 -0.33154297 C15.59667199 0.28006276 18.51946402 2.29563057 21.85302734 6.35205078 C23.34238765 9.92041575 23.39880729 13.17079425 23.31005859 16.96923828 C23.31489258 17.99210937 23.31489258 17.99210937 23.31982422 19.03564453 C23.27076544 23.71852787 22.4552151 27.64577261 20.99755859 32.09423828 C21.98369141 31.76939453 22.96982422 31.44455078 23.98583984 31.10986328 C28.09173544 29.93999824 31.93778982 29.79638173 36.18505859 29.84423828 C37.23209961 29.83263672 37.23209961 29.83263672 38.30029297 29.82080078 C42.09979634 29.83526131 44.71178855 30.20243129 47.99755859 32.09423828 C50.65247124 31.77817725 52.60961105 31.28821205 54.99755859 30.09423828 C57.40594537 30.00783959 59.78489741 29.97856064 62.19287109 29.99658203 C62.90031464 29.99799698 63.60775818 29.99941193 64.3366394 30.00086975 C66.59865528 30.00647228 68.86057258 30.0190251 71.12255859 30.03173828 C72.65510925 30.03675296 74.18766145 30.04131592 75.72021484 30.04541016 C79.47936747 30.05644251 83.23844631 30.07370877 86.99755859 30.09423828 C87.20227783 28.66688354 87.20227783 28.66688354 87.41113281 27.21069336 C88.04476954 23.84334412 88.55133189 22.92058381 91.12255859 20.78173828 C91.68201172 20.29060547 92.24146484 19.79947266 92.81787109 19.29345703 C98.18902497 16.33835982 105.05496513 16.88430563 111.06005859 16.84423828 C111.83671875 16.82361328 112.61337891 16.80298828 113.41357422 16.78173828 C118.37098359 16.74815718 121.69064018 17.37886588 125.99755859 20.09423828 C128.66479277 22.76147245 129.91110934 24.12168423 130.24755859 27.90673828 C130.16505859 28.62861328 130.08255859 29.35048828 129.99755859 30.09423828 C130.84318359 29.97048828 131.68880859 29.84673828 132.56005859 29.71923828 C137.43879386 30.25146395 139.87244965 32.4088194 142.99755859 36.09423828 C146.50468446 41.76244522 147.11085676 48.61686712 145.99755859 55.09423828 C143.53915862 61.00160232 139.93313633 65.00750865 134.03271484 67.52001953 C130.89382853 68.4056554 128.23999261 68.36444112 124.99755859 68.09423828 C124.66755859 71.06423828 124.33755859 74.03423828 123.99755859 77.09423828 C124.98755859 76.99111328 125.97755859 76.88798828 126.99755859 76.78173828 C131.82465628 76.77192711 135.35482757 79.0850257 138.99755859 82.09423828 C142.61876446 85.99718557 142.51337096 89.21689252 142.32958984 94.35595703 C141.42071356 101.85151317 136.32307542 106.32021456 130.80615234 111.00439453 C120.55249086 118.63403138 109.38845876 119.59013305 96.99755859 118.09423828 C92.40797111 116.9753566 88.62708495 115.52048369 85.05615234 112.39501953 C83.05953654 110.85143263 83.05953654 110.85143263 80.56787109 111.25048828 C77.83686536 112.14698864 75.41599385 113.25640689 72.87255859 114.59423828 C67.47446304 117.41634295 63.25643173 118.30020294 57.18505859 118.34423828 C56.48574219 118.36486328 55.78642578 118.38548828 55.06591797 118.40673828 C50.23127195 118.44291898 47.18043416 117.42355008 42.99755859 115.09423828 C40.14927046 115.30785989 37.99830894 116.0939485 35.33740234 117.12158203 C31.53351036 118.22938215 27.98939488 118.47617077 24.06005859 118.46923828 C22.99392334 118.47225952 22.99392334 118.47225952 21.90625 118.4753418 C16.32101568 118.36642135 13.51120917 117.13604628 8.99755859 114.09423828 C5.31453764 114.17260043 2.96926721 115.10733614 -0.37744141 116.65673828 C-7.25102691 119.33717124 -16.55445486 119.31990568 -23.63916016 117.36767578 C-27.0470536 115.77083428 -29.09670631 113.99783099 -31.75244141 111.28173828 C-32.49494141 110.55986328 -33.23744141 109.83798828 -34.00244141 109.09423828 C-38.06524695 109.56665753 -41.52242492 111.84630804 -45.07666016 113.74267578 C-56.54438508 119.04018289 -69.40670983 120.39908744 -81.71728516 117.09814453 C-88.95538883 113.80979113 -94.40901443 108.54359535 -99.00244141 102.09423828 C-99.00244141 101.43423828 -99.00244141 100.77423828 -99.00244141 100.09423828 C-99.66244141 100.09423828 -100.32244141 100.09423828 -101.00244141 100.09423828 C-101.08494141 100.79548828 -101.16744141 101.49673828 -101.25244141 102.21923828 C-102.18895143 105.80919337 -103.79236169 108.12641695 -106.00244141 111.09423828 C-106.53869141 111.81611328 -107.07494141 112.53798828 -107.62744141 113.28173828 C-115.52870463 119.31164969 -126.51892818 119.13025233 -136.00244141 118.09423828 C-142.61264255 115.94393189 -146.31144659 110.7285978 -150.00244141 105.09423828 C-152.84617667 106.7315404 -155.38112893 108.40041117 -157.93994141 110.46923828 C-167.04759189 116.84459362 -176.44685642 118.55749884 -187.31494141 118.65673828 C-188.233479 118.6713208 -189.1520166 118.68590332 -190.09838867 118.70092773 C-195.79657724 118.61606438 -199.97299825 117.61684115 -205.01879883 114.94335938 C-209.78239247 112.90424815 -214.39535831 114.84239417 -218.93994141 116.65673828 C-227.61278447 119.68319914 -238.6822295 119.74431403 -247.00244141 115.78173828 C-250.82295423 113.63269982 -250.82295423 113.63269982 -252.00244141 110.09423828 C-252.69853516 110.53380859 -253.39462891 110.97337891 -254.11181641 111.42626953 C-262.32772424 116.1670704 -270.51848062 118.56268903 -279.93994141 118.65673828 C-280.63700195 118.67115967 -281.3340625 118.68558105 -282.05224609 118.70043945 C-288.49399481 118.57478064 -292.84216101 116.31290463 -297.31494141 111.71923828 C-300.58863543 106.62682536 -301.27787042 101.95777185 -301.25244141 95.96923828 C-301.25759766 94.77041016 -301.26275391 93.57158203 -301.26806641 92.33642578 C-301.10151912 87.95210866 -300.31952989 83.70589714 -299.55957031 79.39111328 C-298.97743291 75.94624758 -298.49503929 72.49919847 -298.03759766 69.03564453 C-297.87710938 67.82457031 -297.71662109 66.61349609 -297.55126953 65.36572266 C-297.22762005 62.89740791 -296.9072952 60.42865491 -296.59033203 57.95947266 C-295.7936053 51.98878346 -294.84250663 46.18187724 -293.39306641 40.33251953 C-291.82755925 33.87720019 -291.61142598 27.79575939 -291.73876953 21.18408203 C-291.65335705 15.45695023 -290.46242827 12.54027923 -286.48608398 8.38476562 C-277.12150417 0.23910676 -250.46539155 3.45612258 -238.79199219 3.89892578 C-226.73684964 4.74297567 -216.72125797 10.55819401 -208.51025391 19.24658203 C-203.84028505 24.96910863 -202.48009488 29.78138693 -203.00244141 37.09423828 C-202.05884766 36.71332031 -202.05884766 36.71332031 -201.09619141 36.32470703 C-200.24025391 35.98052734 -199.38431641 35.63634766 -198.50244141 35.28173828 C-197.66712891 34.94529297 -196.83181641 34.60884766 -195.97119141 34.26220703 C-194.99150391 33.87677734 -194.01181641 33.49134766 -193.00244141 33.09423828 C-192.40431641 32.83255859 -191.80619141 32.57087891 -191.18994141 32.30126953 C-186.02993585 30.15126722 -181.56437079 29.63381616 -176.00244141 29.71923828 C-175.24705078 29.70763672 -174.49166016 29.69603516 -173.71337891 29.68408203 C-168.88366893 29.70897744 -165.28300875 30.60758665 -160.84228516 32.453125 C-158.1222292 33.40095766 -155.83352754 33.19812405 -153.00244141 32.84423828 C-151.96732422 32.72693359 -150.93220703 32.60962891 -149.86572266 32.48876953 C-147.63875336 32.18191564 -145.41387661 31.85985987 -143.18994141 31.53173828 C-139.26459299 31.0359048 -135.32984854 30.87790507 -131.37744141 30.78173828 C-129.50185547 30.72566406 -129.50185547 30.72566406 -127.58837891 30.66845703 C-122.51969117 31.27029468 -119.55008253 33.54659716 -116.00244141 37.09423828 C-115.28056641 36.27955078 -114.55869141 35.46486328 -113.81494141 34.62548828 C-108.95081486 30.58346763 -103.00704545 31.44778452 -97.00244141 31.59423828 C-95.83970703 31.59166016 -94.67697266 31.58908203 -93.47900391 31.58642578 C-87.39053914 31.65608785 -83.40013176 32.11591455 -78.00244141 35.09423828 C-75.22310631 34.8962971 -75.22310631 34.8962971 -72.56494141 33.90673828 C-71.60330078 33.60767578 -70.64166016 33.30861328 -69.65087891 33.00048828 C-67.65831888 32.31866833 -65.67238831 31.61742679 -63.68994141 30.90673828 C-52.57679012 28.45807783 -43.14446489 30.15056361 -33.00244141 35.09423828 C-32.01244141 35.75423828 -31.02244141 36.41423828 -30.00244141 37.09423828 C-28.12381179 30.49649107 -27.6574471 24.46259061 -27.61181641 17.62939453 C-27.45014984 12.35726829 -26.54727078 9.24657375 -23.00244141 5.09423828 C-16.25627725 0.12982312 -7.99886145 0.37643996 0 0 Z " fill="#12A7E1" transform="translate(349.00244140625,199.90576171875)"/>
<path d="M0 0 C1.16273437 -0.01224609 2.32546875 -0.02449219 3.5234375 -0.03710938 C14.03913007 -0.05495274 22.59746378 1.09444166 31.375 7.1875 C35.64831608 11.46081608 38.00552795 16.4428505 38.8125 22.4375 C37.95109438 29.82097676 35.25591488 37.51508541 30.375 43.1875 C27.47557686 45.36332361 24.47889746 47.31720281 21.375 49.1875 C22.95003249 54.83974426 24.70056263 59.95006015 27.375 65.1875 C27.87347636 66.63934645 28.35108802 68.09845226 28.8125 69.5625 C30.03438194 73.41662761 31.63277947 76.8390386 33.60546875 80.36328125 C34.375 82.1875 34.375 82.1875 34.375 86.1875 C27.08937195 88.93058285 19.34153341 89.62987578 11.9375 86.9375 C4.93632352 79.42404231 -0.625 66.50043183 -0.625 56.1875 C-3.265 56.1875 -5.905 56.1875 -8.625 56.1875 C-8.59599609 57.68796875 -8.59599609 57.68796875 -8.56640625 59.21875 C-8.62412203 63.12803226 -9.01496266 66.81876904 -9.5625 70.6875 C-9.73652344 71.9353125 -9.91054687 73.183125 -10.08984375 74.46875 C-10.35474609 76.30953125 -10.35474609 76.30953125 -10.625 78.1875 C-10.81393977 79.51039701 -11.00274796 80.83331282 -11.19140625 82.15625 C-11.33449219 83.1565625 -11.47757813 84.156875 -11.625 85.1875 C-18.05871268 88.15690585 -24.5446092 89.51966242 -31.625 88.1875 C-34.39348085 85.28129401 -35.02216864 83.27392643 -34.95703125 79.3046875 C-34.76483579 72.52277294 -33.55976409 65.96738332 -32.3125 59.3125 C-31.84944459 56.73084773 -31.38851868 54.14881263 -30.9296875 51.56640625 C-30.70506836 50.30844238 -30.48044922 49.05047852 -30.24902344 47.75439453 C-27.54686689 32.30896918 -25.8849193 16.81095172 -24.625 1.1875 C-16.40425999 0.28253128 -8.26712323 0.00461335 0 0 Z " fill="#F9FDFE" transform="translate(95.625,216.8125)"/>
<path d="M0 0 C0.712771 -0.01023193 1.42554199 -0.02046387 2.15991211 -0.03100586 C9.23997204 0.08659765 15.21755324 2.34255324 20.3125 7.4375 C23.96963389 13.03285692 25.02698263 18.07587777 24.9375 24.6875 C24.92819458 25.93213013 24.92819458 25.93213013 24.91870117 27.2019043 C24.66123878 34.66686311 22.54239591 40.25534444 18.3125 46.4375 C17.590625 47.530625 16.86875 48.62375 16.125 49.75 C7.88169784 57.62693318 -0.84858426 61.79981949 -12.1875 61.75 C-12.92097656 61.76611328 -13.65445312 61.78222656 -14.41015625 61.79882812 C-20.54639493 61.80431671 -24.58230468 60.24195313 -29.3125 56.1875 C-35.3851541 49.15600578 -37.06521385 42.82395249 -36.96484375 33.66796875 C-36.04761806 22.98422728 -30.51135258 14.89487585 -22.9375 7.6875 C-15.79588941 1.83218325 -9.08654923 0.10095077 0 0 Z " fill="#F9FCFE" transform="translate(294.6875,243.5625)"/>
<path d="M0 0 C1.09731445 0.00676758 1.09731445 0.00676758 2.21679688 0.01367188 C3.99873419 0.02531852 5.78062863 0.04324809 7.5625 0.0625 C7.85649366 7.6114985 6.72558014 14.85597437 5.625 22.3125 C4.32148209 31.22064007 3.18620954 40.07858361 2.5625 49.0625 C5.96518772 47.10134841 8.18132836 45.72435654 10.1875 42.3125 C10.57164062 41.67828125 10.95578125 41.0440625 11.3515625 40.390625 C11.75117188 39.62234375 12.15078125 38.8540625 12.5625 38.0625 C13.32820313 36.60650391 13.32820313 36.60650391 14.109375 35.12109375 C16.40247179 29.66238342 16.61856028 23.70986475 17.1875 17.875 C17.42748118 15.5479485 17.66957865 13.22111401 17.9140625 10.89453125 C18.01541504 9.87077393 18.11676758 8.8470166 18.22119141 7.79223633 C18.81848145 3.01519775 18.81848145 3.01519775 19.5625 1.0625 C22.38661765 0.12112745 24.09168032 -0.05475382 27.01171875 -0.03515625 C27.85927734 -0.03193359 28.70683594 -0.02871094 29.58007812 -0.02539062 C30.46115234 -0.01701172 31.34222656 -0.00863281 32.25 0 C33.58901367 0.00676758 33.58901367 0.00676758 34.95507812 0.01367188 C37.15761987 0.02545017 39.36002599 0.04189836 41.5625 0.0625 C41.74645837 6.99903123 41.25090739 13.58654389 40.1875 20.4375 C40.05174561 21.3543457 39.91599121 22.27119141 39.77612305 23.21582031 C39.04646327 28.09517738 38.24274497 32.95562526 37.375 37.8125 C36.55411941 42.67517402 36.17129948 47.13337345 36.5625 52.0625 C37.99992012 53.80318321 37.99992012 53.80318321 39.5625 55.0625 C33.58804446 60.18346189 28.94024832 61.54253899 21.16015625 61.375 C17.51810692 60.93685873 15.87302255 59.89475345 13.5625 57.0625 C12.25 53.8125 12.25 53.8125 11.5625 51.0625 C11.06621094 51.53300781 10.56992187 52.00351562 10.05859375 52.48828125 C3.21630288 58.75929925 -2.47334317 61.72541871 -11.90625 61.4921875 C-15.66298878 60.8544695 -17.27129839 59.09518225 -19.4375 56.0625 C-23.13781195 48.6618761 -19.84454567 37.02816188 -18.5 29.25 C-16.95448874 19.8385084 -15.75221059 10.59823088 -15.4375 1.0625 C-10.23576905 0.19440561 -5.26771184 -0.06265348 0 0 Z " fill="#F9FCFE" transform="translate(382.4375,243.9375)"/>
<path d="M0 0 C0.79937988 -0.01836914 1.59875977 -0.03673828 2.42236328 -0.05566406 C9.39651297 0.01627889 14.56680937 2.11303796 19.875 6.625 C22.16343731 11.01117151 22.39700557 14.66997367 21.375 19.5 C17.18691618 28.47446533 10.89771418 32.35227782 2 35.8125 C-2.90050455 36.74190604 -7.65367344 36.66181533 -12.625 36.5 C-12.32842397 40.28134444 -11.85308494 43.07120032 -10.0625 46.4375 C-7.22758288 48.83627602 -5.38565407 49.0933969 -1.70703125 48.875 C1.53530637 48.29101424 4.37684938 46.83251139 7.375 45.5 C11.37845996 45.10750393 13.93636815 45.38391886 17.375 47.5 C14.85566974 53.42106554 9.32680161 56.81054781 3.5625 59.3125 C-4.66709643 62.37842808 -14.23233218 62.98281741 -22.79296875 60.62890625 C-28.20817251 58.13021162 -32.09939123 54.95928533 -34.625 49.5 C-38.30526919 39.39386397 -37.65194691 28.93650833 -33.18359375 19.265625 C-30.84466097 15.11533827 -28.05050924 11.78976645 -24.625 8.5 C-23.861875 7.7575 -23.09875 7.015 -22.3125 6.25 C-15.02618016 1.50541964 -8.61873402 0.10987762 0 0 Z " fill="#F8FDFE" transform="translate(173.625,243.5)"/>
<path d="M0 0 C1.18239258 0.00676758 1.18239258 0.00676758 2.38867188 0.01367188 C4.32164761 0.02538688 6.25458393 0.04332002 8.1875 0.0625 C12.17315416 7.7405858 13.28891291 15.28115413 14.3125 23.75 C14.40023682 24.47485596 14.48797363 25.19971191 14.57836914 25.9465332 C15.04026861 30.00854522 15.27780833 33.96637221 15.1875 38.0625 C15.8475 38.0625 16.5075 38.0625 17.1875 38.0625 C17.33638672 36.78826172 17.33638672 36.78826172 17.48828125 35.48828125 C18.26883761 31.66399116 19.63212393 28.73959954 21.375 25.25 C25.36322898 17.06648293 28.26627815 8.68366693 31.1875 0.0625 C36.7975 0.0625 42.4075 0.0625 48.1875 0.0625 C48.1875 6.30027096 47.70158233 9.04888614 44.9375 14.1875 C44.41373779 15.19707764 44.41373779 15.19707764 43.87939453 16.22705078 C37.53126971 28.30456949 30.65395106 40.13378463 23.48876953 51.74267578 C22.10750583 54.06856223 22.10750583 54.06856223 21.16748047 56.77294922 C20.1875 59.0625 20.1875 59.0625 17.75 60.375 C12.9280466 61.30555241 8.03423037 62.07135363 3.1875 61.0625 C-2.03503061 57.24280973 -3.11053172 52.95135493 -4.4375 46.9375 C-4.6449585 46.0602124 -4.85241699 45.1829248 -5.06616211 44.27905273 C-6.62339309 37.48402885 -7.73054158 30.65158651 -8.71264648 23.75341797 C-9.59821158 17.7674783 -11.07095463 12.26264685 -13.04296875 6.53125 C-13.8125 4.0625 -13.8125 4.0625 -13.8125 1.0625 C-9.18790756 -0.11450048 -4.73383538 -0.05158412 0 0 Z " fill="#F7FCFE" transform="translate(212.8125,243.9375)"/>
<path d="M0 0 C0.24418532 8.37527583 -0.42024249 16.24733406 -1.8125 24.5 C-2.18137503 26.78509406 -2.54986044 29.07025105 -2.91796875 31.35546875 C-3.10149902 32.47614746 -3.2850293 33.59682617 -3.47412109 34.75146484 C-4.23189934 39.43252212 -4.93151326 44.12156079 -5.625 48.8125 C-6.43437962 54.25407956 -7.26469759 59.69117818 -8.125 65.125 C-8.41981321 67.08286211 -8.71169879 69.04116838 -9 71 C-9.14824219 71.94746094 -9.29648437 72.89492188 -9.44921875 73.87109375 C-9.56910156 74.75925781 -9.68898438 75.64742188 -9.8125 76.5625 C-9.92207031 77.32691406 -10.03164063 78.09132813 -10.14453125 78.87890625 C-9.95430953 81.6705385 -8.81325629 82.9337312 -7 85 C-10.21586249 88.97253602 -14.55420747 90.71383083 -19.50390625 91.29296875 C-24.44778119 91.44769509 -28.05248582 91.31081834 -32 88 C-35.82662905 80.3467419 -32.54054529 68.76429633 -30.79296875 60.86328125 C-29.9695185 56.85149654 -29.40925206 52.87682548 -28.9375 48.8125 C-28.15820423 42.16589191 -27.15119744 35.59178807 -26 29 C-23.57380415 15.05830907 -23.57380415 15.05830907 -22 1 C-14.6394733 0.08807634 -7.41104733 -0.09258342 0 0 Z " fill="#F9FCFE" transform="translate(358,214)"/>
<path d="M0 0 C-0.33 4.95 -0.66 9.9 -1 15 C3.89235943 14.30283155 3.89235943 14.30283155 8.78295898 13.59350586 C10.51675833 13.35424201 12.25855536 13.17515108 14 13 C15 14 15 14 15.09765625 16.06640625 C15.08605469 16.89011719 15.07445312 17.71382812 15.0625 18.5625 C15.05347656 19.38878906 15.04445313 20.21507812 15.03515625 21.06640625 C15.02355469 21.70449219 15.01195312 22.34257812 15 23 C10.78103134 25.04898287 7.34627854 25.21207997 2.6875 25.125 C1.43324219 25.10695312 0.17898438 25.08890625 -1.11328125 25.0703125 C-2.06589844 25.04710937 -3.01851563 25.02390625 -4 25 C-4.04898437 26.03898437 -4.09796875 27.07796875 -4.1484375 28.1484375 C-4.51447011 35.18843646 -5.02812057 41.92248506 -6.5859375 48.81640625 C-7.44262035 53.33419598 -7.46333934 57.60998198 -6 62 C-2.58343976 62.16677282 -2.58343976 62.16677282 1 62 C1.66 61.34 2.32 60.68 3 60 C9.08695652 60.54347826 9.08695652 60.54347826 12 62 C9.65548134 67.75472762 5.04672411 71.69269942 -0.49609375 74.26953125 C-7.2408991 76.23720457 -15.2079088 76.27829023 -21.625 73.25 C-25.62672544 70.82497152 -28.49059787 68.5282064 -30 64 C-30.49412528 56.98944497 -29.63819234 50.1644503 -28.5625 43.25 C-28.42779297 42.34378906 -28.29308594 41.43757813 -28.15429688 40.50390625 C-27.47963222 35.99517174 -26.76638686 31.49415205 -26 27 C-27.98 27 -29.96 27 -32 27 C-32 23.04 -32 19.08 -32 15 C-28.7 15 -25.4 15 -22 15 C-21.71125 13.80375 -21.4225 12.6075 -21.125 11.375 C-20.75187522 9.91618575 -20.37689353 8.45784511 -20 7 C-19.71125 5.865625 -19.4225 4.73125 -19.125 3.5625 C-18 1 -18 1 -16.3828125 0.34375 C-10.98477146 -0.43498379 -5.43457988 -0.05032018 0 0 Z " fill="#F9FCFE" transform="translate(466,230)"/>
<path d="M0 0 C1.43850428 -0.04574749 2.87742971 -0.07837775 4.31640625 -0.10546875 C5.11763916 -0.12504639 5.91887207 -0.14462402 6.74438477 -0.16479492 C10.19684305 0.08744118 11.74082691 1.46698775 14 4 C16.37435919 8.07033005 16.67877408 12.39282094 16 17 C14.60418706 21.36984619 12.69717722 24.3360217 9.375 27.5 C4.82972293 29.52012314 0.89665366 29.34837852 -4 29 C-4.24856408 22.41305198 -3.31547023 16.44402648 -2 10 C-1.80921875 9.03449219 -1.6184375 8.06898438 -1.421875 7.07421875 C-0.95464658 4.71471522 -0.48056564 2.35681661 0 0 Z " fill="#13C0EB" transform="translate(94,230)"/>
<path d="M0 0 C2.625 0.375 2.625 0.375 5 1 C7.00443687 11.55562322 7.20426512 22.94782701 3 33 C1.39453125 35.30078125 1.39453125 35.30078125 0 37 C-2.4375 36.625 -2.4375 36.625 -5 36 C-6.95798851 32.08402299 -6.27245337 27.24384728 -6.3125 22.9375 C-6.34150391 21.92494141 -6.37050781 20.91238281 -6.40039062 19.86914062 C-6.45704442 13.10990706 -5.54251367 7.83343171 -2 2 C-1.34 1.34 -0.68 0.68 0 0 Z " fill="#16A6E1" transform="translate(289,256)"/>
<path d="M0 0 C3.53571429 0.53571429 3.53571429 0.53571429 5 2 C4.84285557 6.16432738 4.61857279 8.32987948 1.75 11.4375 C-1.1811251 13.10291199 -2.6946094 13.37775893 -6 13 C-5.36562401 7.5443665 -3.90304767 3.90304767 0 0 Z " fill="#1DBAE8" transform="translate(168,255)"/>
<path d="M0 0 C0.66 0.33 1.32 0.66 2 1 C1.34 1.66 0.68 2.32 0 3 C-0.16677282 6.58343976 -0.16677282 6.58343976 0 10 C-1.9451 7.08235 -2.45276317 5.37462715 -3 2 C-2.01 1.34 -1.02 0.68 0 0 Z " fill="#4ACCEF" transform="translate(119,264)"/>
</svg>
